<?xml version="1.0" standalone="no"?><!DOCTYPE svg PUBLIC "-//W3C//DTD SVG 1.1//EN" "http://www.w3.org/Graphics/SVG/1.1/DTD/svg11.dtd"><svg t="1715006194902" class="icon" viewBox="0 0 1024 1024" version="1.1" xmlns="http://www.w3.org/2000/svg" p-id="1467" width="128" height="128" xmlns:xlink="http://www.w3.org/1999/xlink"><path d="M807.9 595c-100.8-218-35.7-287.9-35.1-288.6 1.4-1.3 1.4-3.4 0.1-4.8-1-1-2.5-1.4-3.9-0.8-1.5 0.6-141.5 58.9-123.9 188.3C606.6 454.6 427.2 277.4 536.8 69c0.9-1.7 0.2-3.8-1.5-4.7-0.9-0.5-1.9-0.5-2.9-0.1-40.9 19.4-76.3 48.8-103 85.4-41.1 55.7-79.4 154.2-27.9 306.6 12.5 54.2-0.6 111.2-35.6 154.5 7-25.7 10.2-52.3 9.6-78.9-0.2-65.9-36-126.6-93.6-158.6-1.2-0.7-2.6-0.6-3.7 0.2-1.2 0.8-1.7 2.3-1.3 3.7 0.3 1.3 28.2 128.6-20.8 187.6-42.1 51-83.5 139.4-61.1 221.4 18.7 68.5 77.5 120.9 174.4 155.5 24.6 7.6 49.7 13.7 75 18.4 1.6 0.3 3.2-0.7 3.7-2.3 0.4-1.7-0.3-3.4-1.9-4.3-57.5-17.3-90-77.9-72.7-135.4 2.4-7.9 5.6-15.5 9.7-22.6 36.4-78.8 29.9-119.5 22.4-136.8 33 15.3 52.1 50.4 46.8 86.4-0.3 1.5 0.4 3 1.6 3.7 1.2 0.8 2.8 0.7 3.9-0.3 1.2-0.9 113.4-93.3 62.4-206.4 25.1 14.5 91.8 65.2 52.5 181.6-7.2 31.4 1.8 64.3 24.1 87.5 1.3 1.4 3.5 1.4 4.9 0.1 1-1 1.3-2.5 0.8-3.8-16.6-40.5-4.4-87.1 29.9-114.3-7.1 30.1-2.6 61.8 12.8 88.7 22.7 26 33.9 60.2 31 94.7-4.7 26.5-21 49.6-44.3 62.9-1.6 1.1-2 3.2-0.9 4.8 0.9 1.3 2.4 1.8 3.9 1.4 63.5-20.9 146.4-62.6 182.5-141.9 26.7-67.7 23.2-143.6-9.6-208.7z" fill="#E63D3D" p-id="1468"></path></svg>